<?xml version="1.0" encoding="UTF-8"?>
    <svg width="800" height="2050" version="1.1" xmlns="http://www.w3.org/2000/svg">
    <style>
        .row { font: 14px Arial; fill: #64748b; }
        .score { font: bold 14px Arial; fill: #64748b; }
    </style>
    <text x="400" y="40" text-anchor="middle" font-size="20px" font-weight="bold" fill="#64748b">Channel Performance Overview</text><rect x="150" y="80" width="500" height="30" fill="#eee" rx="5"/><rect x="150" y="80" width="499.95" height="30" fill="#22c55e" rx="5"/>
        <text x="140" y="100" text-anchor="end" class="row">@Masir_Sefid.txt</text>
        <text x="660" y="100" text-anchor="start" class="score">100.0% (S:100%)</text><rect x="150" y="130" width="500" height="30" fill="#eee" rx="5"/><rect x="150" y="130" width="498.0" height="30" fill="#22c55e" rx="5"/>
        <text x="140" y="150" text-anchor="end" class="row">DirectVPN</text>
        <text x="660" y="150" text-anchor="start" class="score">99.6% (S:100%)</text><rect x="150" y="180" width="500" height="30" fill="#eee" rx="5"/><rect x="150" y="180" width="497.84999999999997" height="30" fill="#22c55e" rx="5"/>
        <text x="140" y="200" text-anchor="end" class="row">PrivateVPNs</text>
        <text x="660" y="200" text-anchor="start" class="score">99.6% (S:100%)</text><rect x="150" y="230" width="500" height="30" fill="#eee" rx="5"/><rect x="150" y="230" width="488.05" height="30" fill="#22c55e" rx="5"/>
        <text x="140" y="250" text-anchor="end" class="row">Sub.txt</text>
        <text x="660" y="250" text-anchor="start" class="score">97.6% (S:100%)</text><rect x="150" y="280" width="500" height="30" fill="#eee" rx="5"/><rect x="150" y="280" width="481.0" height="30" fill="#22c55e" rx="5"/>
        <text x="140" y="300" text-anchor="end" class="row">sub.html</text>
        <text x="660" y="300" text-anchor="start" class="score">96.2% (S:100%)</text><rect x="150" y="330" width="500" height="30" fill="#eee" rx="5"/><rect x="150" y="330" width="478.40000000000003" height="30" fill="#22c55e" rx="5"/>
        <text x="140" y="350" text-anchor="end" class="row">v2ray.txt</text>
        <text x="660" y="350" text-anchor="start" class="score">95.7% (S:100%)</text><rect x="150" y="380" width="500" height="30" fill="#eee" rx="5"/><rect x="150" y="380" width="474.4" height="30" fill="#22c55e" rx="5"/>
        <text x="140" y="400" text-anchor="end" class="row">proxies.txt</text>
        <text x="660" y="400" text-anchor="start" class="score">94.9% (S:100%)</text><rect x="150" y="430" width="500" height="30" fill="#eee" rx="5"/><rect x="150" y="430" width="472.84999999999997" height="30" fill="#22c55e" rx="5"/>
        <text x="140" y="450" text-anchor="end" class="row">Fast.txt</text>
        <text x="660" y="450" text-anchor="start" class="score">94.6% (S:100%)</text><rect x="150" y="480" width="500" height="30" fill="#eee" rx="5"/><rect x="150" y="480" width="471.75" height="30" fill="#22c55e" rx="5"/>
        <text x="140" y="500" text-anchor="end" class="row">persianvpnhub</text>
        <text x="660" y="500" text-anchor="start" class="score">94.3% (S:100%)</text><rect x="150" y="530" width="500" height="30" fill="#eee" rx="5"/><rect x="150" y="530" width="469.90000000000003" height="30" fill="#22c55e" rx="5"/>
        <text x="140" y="550" text-anchor="end" class="row">sub_merge.txt</text>
        <text x="660" y="550" text-anchor="start" class="score">94.0% (S:100%)</text><rect x="150" y="580" width="500" height="30" fill="#eee" rx="5"/><rect x="150" y="580" width="463.05" height="30" fill="#22c55e" rx="5"/>
        <text x="140" y="600" text-anchor="end" class="row">Vless-Reality-White-Lists-Rus-Mobile.txt</text>
        <text x="660" y="600" text-anchor="start" class="score">92.6% (S:100%)</text><rect x="150" y="630" width="500" height="30" fill="#eee" rx="5"/><rect x="150" y="630" width="461.3" height="30" fill="#22c55e" rx="5"/>
        <text x="140" y="650" text-anchor="end" class="row">Sub2.txt</text>
        <text x="660" y="650" text-anchor="start" class="score">92.3% (S:100%)</text><rect x="150" y="680" width="500" height="30" fill="#eee" rx="5"/><rect x="150" y="680" width="457.29999999999995" height="30" fill="#22c55e" rx="5"/>
        <text x="140" y="700" text-anchor="end" class="row">xray_final.txt</text>
        <text x="660" y="700" text-anchor="start" class="score">91.5% (S:100%)</text><rect x="150" y="730" width="500" height="30" fill="#eee" rx="5"/><rect x="150" y="730" width="443.1" height="30" fill="#22c55e" rx="5"/>
        <text x="140" y="750" text-anchor="end" class="row">Sub.mahsa.xsparvin</text>
        <text x="660" y="750" text-anchor="start" class="score">88.6% (S:100%)</text><rect x="150" y="780" width="500" height="30" fill="#eee" rx="5"/><rect x="150" y="780" width="440.3" height="30" fill="#22c55e" rx="5"/>
        <text x="140" y="800" text-anchor="end" class="row">vless.txt</text>
        <text x="660" y="800" text-anchor="start" class="score">88.1% (S:100%)</text><rect x="150" y="830" width="500" height="30" fill="#eee" rx="5"/><rect x="150" y="830" width="437.45" height="30" fill="#22c55e" rx="5"/>
        <text x="140" y="850" text-anchor="end" class="row">Telegram-Channel-@Masir_Sefid.txt</text>
        <text x="660" y="850" text-anchor="start" class="score">87.5% (S:100%)</text><rect x="150" y="880" width="500" height="30" fill="#eee" rx="5"/><rect x="150" y="880" width="436.4" height="30" fill="#22c55e" rx="5"/>
        <text x="140" y="900" text-anchor="end" class="row">VPN-cat</text>
        <text x="660" y="900" text-anchor="start" class="score">87.3% (S:100%)</text><rect x="150" y="930" width="500" height="30" fill="#eee" rx="5"/><rect x="150" y="930" width="436.2" height="30" fill="#22c55e" rx="5"/>
        <text x="140" y="950" text-anchor="end" class="row">BLACK_VLESS_RUS_mobile.txt</text>
        <text x="660" y="950" text-anchor="start" class="score">87.2% (S:100%)</text><rect x="150" y="980" width="500" height="30" fill="#eee" rx="5"/><rect x="150" y="980" width="433.75" height="30" fill="#22c55e" rx="5"/>
        <text x="140" y="1000" text-anchor="end" class="row">Eternity.txt</text>
        <text x="660" y="1000" text-anchor="start" class="score">86.8% (S:100%)</text><rect x="150" y="1030" width="500" height="30" fill="#eee" rx="5"/><rect x="150" y="1030" width="426.9" height="30" fill="#22c55e" rx="5"/>
        <text x="140" y="1050" text-anchor="end" class="row">V2Ray-Config-By-EbraSha.txt</text>
        <text x="660" y="1050" text-anchor="start" class="score">85.4% (S:100%)</text><rect x="150" y="1080" width="500" height="30" fill="#eee" rx="5"/><rect x="150" y="1080" width="424.20000000000005" height="30" fill="#22c55e" rx="5"/>
        <text x="140" y="1100" text-anchor="end" class="row">prrofile_purple</text>
        <text x="660" y="1100" text-anchor="start" class="score">84.8% (S:100%)</text><rect x="150" y="1130" width="500" height="30" fill="#eee" rx="5"/><rect x="150" y="1130" width="422.35" height="30" fill="#22c55e" rx="5"/>
        <text x="140" y="1150" text-anchor="end" class="row">sublist1.txt</text>
        <text x="660" y="1150" text-anchor="start" class="score">84.5% (S:100%)</text><rect x="150" y="1180" width="500" height="30" fill="#eee" rx="5"/><rect x="150" y="1180" width="421.85" height="30" fill="#22c55e" rx="5"/>
        <text x="140" y="1200" text-anchor="end" class="row">base64.txt</text>
        <text x="660" y="1200" text-anchor="start" class="score">84.4% (S:100%)</text><rect x="150" y="1230" width="500" height="30" fill="#eee" rx="5"/><rect x="150" y="1230" width="414.05" height="30" fill="#22c55e" rx="5"/>
        <text x="140" y="1250" text-anchor="end" class="row">sub</text>
        <text x="660" y="1250" text-anchor="start" class="score">82.8% (S:100%)</text><rect x="150" y="1280" width="500" height="30" fill="#eee" rx="5"/><rect x="150" y="1280" width="414.0" height="30" fill="#22c55e" rx="5"/>
        <text x="140" y="1300" text-anchor="end" class="row">Sub1.txt</text>
        <text x="660" y="1300" text-anchor="start" class="score">82.8% (S:100%)</text><rect x="150" y="1330" width="500" height="30" fill="#eee" rx="5"/><rect x="150" y="1330" width="409.65000000000003" height="30" fill="#22c55e" rx="5"/>
        <text x="140" y="1350" text-anchor="end" class="row">Sub3.txt</text>
        <text x="660" y="1350" text-anchor="start" class="score">81.9% (S:100%)</text><rect x="150" y="1380" width="500" height="30" fill="#eee" rx="5"/><rect x="150" y="1380" width="405.85" height="30" fill="#22c55e" rx="5"/>
        <text x="140" y="1400" text-anchor="end" class="row">sub.txt</text>
        <text x="660" y="1400" text-anchor="start" class="score">81.2% (S:100%)</text><rect x="150" y="1430" width="500" height="30" fill="#eee" rx="5"/><rect x="150" y="1430" width="404.25" height="30" fill="#22c55e" rx="5"/>
        <text x="140" y="1450" text-anchor="end" class="row">purkow.txt</text>
        <text x="660" y="1450" text-anchor="start" class="score">80.8% (S:100%)</text><rect x="150" y="1480" width="500" height="30" fill="#eee" rx="5"/><rect x="150" y="1480" width="165.9" height="30" fill="#ef4444" rx="5"/>
        <text x="140" y="1500" text-anchor="end" class="row">WHITE-CIDR-RU-checked.txt</text>
        <text x="660" y="1500" text-anchor="start" class="score">33.2% (S:0%)</text><rect x="150" y="1530" width="500" height="30" fill="#eee" rx="5"/><rect x="150" y="1530" width="139.14999999999998" height="30" fill="#ef4444" rx="5"/>
        <text x="140" y="1550" text-anchor="end" class="row">BLACK_VLESS_RUS.txt</text>
        <text x="660" y="1550" text-anchor="start" class="score">27.8% (S:0%)</text><rect x="150" y="1580" width="500" height="30" fill="#eee" rx="5"/><rect x="150" y="1580" width="127.10000000000001" height="30" fill="#ef4444" rx="5"/>
        <text x="140" y="1600" text-anchor="end" class="row">BLACK_SS+All_RUS.txt</text>
        <text x="660" y="1600" text-anchor="start" class="score">25.4% (S:0%)</text><rect x="150" y="1630" width="500" height="30" fill="#eee" rx="5"/><rect x="150" y="1630" width="75.0" height="30" fill="#ef4444" rx="5"/>
        <text x="140" y="1650" text-anchor="end" class="row">v2rayfree</text>
        <text x="660" y="1650" text-anchor="start" class="score">15.0% (S:0%)</text><rect x="150" y="1680" width="500" height="30" fill="#eee" rx="5"/><rect x="150" y="1680" width="75.0" height="30" fill="#ef4444" rx="5"/>
        <text x="140" y="1700" text-anchor="end" class="row">v2ray_configs_pool</text>
        <text x="660" y="1700" text-anchor="start" class="score">15.0% (S:0%)</text><rect x="150" y="1730" width="500" height="30" fill="#eee" rx="5"/><rect x="150" y="1730" width="75.0" height="30" fill="#ef4444" rx="5"/>
        <text x="140" y="1750" text-anchor="end" class="row">Vless-Reality-White-Lists-Rus-Mobile-2.txt</text>
        <text x="660" y="1750" text-anchor="start" class="score">15.0% (S:0%)</text><rect x="150" y="1780" width="500" height="30" fill="#eee" rx="5"/><rect x="150" y="1780" width="75.0" height="30" fill="#ef4444" rx="5"/>
        <text x="140" y="1800" text-anchor="end" class="row">FRAGMENT</text>
        <text x="660" y="1800" text-anchor="start" class="score">15.0% (S:0%)</text><rect x="150" y="1830" width="500" height="30" fill="#eee" rx="5"/><rect x="150" y="1830" width="75.0" height="30" fill="#ef4444" rx="5"/>
        <text x="140" y="1850" text-anchor="end" class="row">all.txt</text>
        <text x="660" y="1850" text-anchor="start" class="score">15.0% (S:0%)</text><rect x="150" y="1880" width="500" height="30" fill="#eee" rx="5"/><rect x="150" y="1880" width="75.0" height="30" fill="#ef4444" rx="5"/>
        <text x="140" y="1900" text-anchor="end" class="row">v2ray.txt</text>
        <text x="660" y="1900" text-anchor="start" class="score">15.0% (S:0%)</text><rect x="150" y="1930" width="500" height="30" fill="#eee" rx="5"/><rect x="150" y="1930" width="75.0" height="30" fill="#ef4444" rx="5"/>
        <text x="140" y="1950" text-anchor="end" class="row">mihomo.yaml</text>
        <text x="660" y="1950" text-anchor="start" class="score">15.0% (S:0%)</text><rect x="150" y="1980" width="500" height="30" fill="#eee" rx="5"/><rect x="150" y="1980" width="75.0" height="30" fill="#ef4444" rx="5"/>
        <text x="140" y="2000" text-anchor="end" class="row">#pythash</text>
        <text x="660" y="2000" text-anchor="start" class="score">15.0% (S:0%)</text></svg>